<svg width="29" height="29" viewBox="0 0 29 29" fill="none" xmlns="http://www.w3.org/2000/svg">
<path d="M9.31081 6.36797L9.61215 6.37873L9.76228 6.11723C10.3429 5.10579 11.2459 4.31821 12.3269 3.88039C13.4079 3.44257 14.6044 3.37978 15.7253 3.70207C16.8461 4.02435 17.8266 4.7131 18.5099 5.65822C19.1932 6.60334 19.54 7.75026 19.4947 8.91565C19.4495 10.081 19.0148 11.1976 18.2602 12.0869C17.5057 12.9762 16.4748 13.5868 15.3323 13.8212C14.1898 14.0556 13.0017 13.9002 11.958 13.3799C10.9142 12.8595 10.075 12.0043 9.57456 10.9509L9.31532 10.4052L8.82773 10.7619C8.5472 10.9671 8.2085 11.0774 7.86092 11.0769H7.86008H7.1458H6.6458V11.5769V11.9411C6.6458 12.3416 6.79813 12.7066 7.04572 12.9815L7.4206 13.3977L7.79172 12.9781C7.86846 12.8914 7.96981 12.8301 8.08226 12.8024C8.19471 12.7747 8.31294 12.7819 8.4212 12.823C8.52946 12.8642 8.62262 12.9373 8.68826 13.0327C8.7539 13.1282 8.78892 13.2413 8.78865 13.3571L8.78865 13.3579C8.7886 13.4376 8.7719 13.5163 8.73962 13.5891C8.70735 13.6619 8.66022 13.7272 8.60125 13.7807C8.54228 13.8342 8.47278 13.8748 8.3972 13.8999C8.32162 13.925 8.24163 13.934 8.16237 13.9263L8.14717 13.9248L8.13191 13.9243C7.61799 13.9063 7.13116 13.6894 6.77398 13.3195C6.41681 12.9496 6.2172 12.4554 6.21722 11.9412V11.9411V6.58115C6.21722 6.52432 6.2398 6.46981 6.27999 6.42963L5.9298 6.07944L6.27999 6.42962C6.32017 6.38944 6.37468 6.36686 6.43151 6.36686H9.27973L9.31081 6.36797ZM6.6458 10.1483V10.6483H7.1458H7.86008C8.18213 10.6483 8.49099 10.5204 8.71871 10.2926C8.94643 10.0649 9.07437 9.75605 9.07437 9.43401V8.90543V8.89721L9.0741 8.889C9.07026 8.77237 9.07026 8.65564 9.0741 8.53901L9.07437 8.5308V8.52258V7.29543V6.79543H8.57437H7.1458H6.6458V7.29543V10.1483Z" stroke="#979797"/>
<path d="M4.78577 18.7136C4.78577 17.4038 5.84784 16.3564 7.15577 16.3564H21.4286C22.0538 16.3564 22.6533 16.6048 23.0954 17.0468C23.5374 17.4889 23.7858 18.0884 23.7858 18.7136C23.7858 20.9377 22.7014 22.6091 20.9671 23.7162C19.2413 24.816 16.876 25.3564 14.2858 25.3564C11.6956 25.3564 9.33024 24.816 7.60448 23.7162C5.87038 22.6107 4.78577 20.9366 4.78577 18.7136Z" stroke="#979797"/>
</svg>
