<svg width="21" height="22" viewBox="0 0 21 22" fill="none" xmlns="http://www.w3.org/2000/svg">
<path d="M11.86 0.55375C11.4667 0.20037 10.9566 0.00488281 10.4279 0.00488281C9.89913 0.00488281 9.38905 0.20037 8.99573 0.55375L1.13859 7.61375C0.915193 7.81464 0.736538 8.06027 0.614221 8.33468C0.491903 8.6091 0.428658 8.90617 0.428589 9.20661V19.2852C0.428589 19.8535 0.654354 20.3985 1.05622 20.8004C1.45808 21.2023 2.00312 21.428 2.57145 21.428H5.42859C5.99691 21.428 6.54195 21.2023 6.94382 20.8004C7.34568 20.3985 7.57145 19.8535 7.57145 19.2852V13.5709C7.57145 13.3815 7.6467 13.1998 7.78065 13.0658C7.91461 12.9319 8.09629 12.8566 8.28573 12.8566H12.5714C12.7609 12.8566 12.9426 12.9319 13.0765 13.0658C13.2105 13.1998 13.2857 13.3815 13.2857 13.5709V19.2852C13.2857 19.8535 13.5115 20.3985 13.9134 20.8004C14.3152 21.2023 14.8603 21.428 15.4286 21.428H18.2857C18.8541 21.428 19.3991 21.2023 19.801 20.8004C20.2028 20.3985 20.4286 19.8535 20.4286 19.2852V9.20661C20.4285 8.90617 20.3653 8.6091 20.243 8.33468C20.1206 8.06027 19.942 7.81464 19.7186 7.61375L11.8614 0.55375H11.86Z" fill="#FDBA2F"/>
</svg>
