<svg width="30" height="29" viewBox="0 0 30 29" fill="none" xmlns="http://www.w3.org/2000/svg">
<path d="M4.83095 5.81504L4.75284 5.89314C3.44373 7.2426 2.71002 9.04992 2.71002 10.9329C2.71002 12.8524 3.47252 14.6934 4.82978 16.0508L4.83095 5.81504ZM4.83095 5.81504C5.98324 4.6629 7.49044 3.93306 9.10887 3.74351C10.5146 3.57887 11.9329 3.83022 13.1905 4.45923L9.59564 8.05518C9.59556 8.05527 9.59547 8.05536 9.59538 8.05545C8.62314 9.02589 8.06894 10.3381 8.05119 11.7116C8.03344 13.0853 8.55364 14.4115 9.50064 15.4068C10.4476 16.402 11.7463 16.9875 13.1192 17.038C14.4121 17.0855 15.6742 16.6552 16.6667 15.834L21.0274 20.1937L16.3299 24.8912C16.3299 24.8912 16.3298 24.8912 16.3298 24.8912C15.9771 25.2438 15.4988 25.4419 15 25.4419C14.5013 25.4419 14.023 25.2438 13.6703 24.8912C13.6702 24.8912 13.6702 24.8912 13.6702 24.8912L4.82979 16.0508L4.83095 5.81504ZM17.025 11.4103V11.8049C16.9135 11.7819 16.799 11.7701 16.6834 11.7701C16.2352 11.7701 15.8054 11.948 15.4884 12.2648C15.4883 12.2649 15.4883 12.2649 15.4882 12.265L14.6467 13.1053L14.6467 13.1052L14.6404 13.1117C14.4669 13.2914 14.2593 13.4347 14.0298 13.5333C13.8004 13.6318 13.5535 13.6837 13.3038 13.6859C13.054 13.6881 12.8064 13.6405 12.5752 13.5459C12.344 13.4513 12.134 13.3117 11.9574 13.135C11.7808 12.9584 11.6411 12.7484 11.5466 12.5173C11.452 12.2861 11.4044 12.0384 11.4066 11.7887C11.4087 11.5389 11.4606 11.2921 11.5592 11.0626C11.6578 10.8331 11.8011 10.6256 11.9807 10.4521L11.9808 10.4521L11.987 10.4459L18.5855 3.84505C20.0275 3.5467 21.5275 3.6951 22.8846 4.27227C24.2854 4.86799 25.4627 5.89018 26.2492 7.19347C27.0356 8.49677 27.3912 10.0148 27.2652 11.5318C27.1398 13.043 26.5429 14.4765 25.559 15.6301L23.4156 17.8009L17.8786 12.2639L17.025 11.4103Z" stroke="#979797"/>
</svg>
