<svg width="13" height="15" viewBox="0 0 13 15" fill="none" xmlns="http://www.w3.org/2000/svg">
<path d="M0.536447 8.93428V8.78093C0.561418 8.2898 0.709211 7.81401 0.965159 7.40078C1.39194 6.8993 1.68534 6.29017 1.81618 5.63393C1.84818 5.13388 1.81618 4.62049 1.84818 4.11377C2.07853 1.68018 4.37565 0 6.5768 0H6.64078C8.88032 0 11.1199 1.68018 11.363 4.11377C11.4078 4.61382 11.363 5.13388 11.4014 5.63393C11.5291 6.29132 11.8229 6.90128 12.2524 7.40078C12.5195 7.80931 12.6724 8.28714 12.6939 8.78093V8.93428C12.6979 9.59947 12.4706 10.2437 12.0541 10.7478C11.5197 11.3455 10.7934 11.718 10.0129 11.7946C7.73376 12.1013 5.42624 12.1013 3.14711 11.7946C2.3757 11.7117 1.65943 11.3397 1.13152 10.7478C0.728073 10.2388 0.516508 9.59408 0.536447 8.93428Z" fill="#5554DB"/>
<path opacity="0.4" d="M7.44622 12.8215C6.99191 12.7881 6.62079 12.8215 6.24967 12.8215C5.88161 12.8148 5.51415 12.8551 5.15549 12.9415C4.84836 13.0148 4.51562 13.1882 4.51562 13.5549C4.54785 13.9093 4.73106 14.2299 5.01472 14.4283C5.56114 14.8659 6.24973 15.0644 6.93432 14.9817C7.59977 14.9302 8.208 14.5705 8.59158 14.0016C8.8036 13.7133 8.75524 13.3013 8.4828 13.0748C8.16022 12.9095 7.80573 12.8228 7.44622 12.8215Z" fill="#5554DB"/>
</svg>
