<svg width="20" height="20" viewBox="0 0 20 20" fill="none" xmlns="http://www.w3.org/2000/svg">
<path d="M11.7674 8.73322C11.6111 8.577 11.3992 8.48923 11.1782 8.48923C10.9572 8.48923 10.7453 8.577 10.5891 8.73322L9.99989 9.32156C9.84614 9.48074 9.66223 9.60771 9.45889 9.69506C9.25555 9.78241 9.03685 9.82838 8.81555 9.83031C8.59425 9.83223 8.37479 9.79006 8.16996 9.70626C7.96514 9.62246 7.77905 9.4987 7.62256 9.34221C7.46607 9.18573 7.34232 8.99964 7.25852 8.79481C7.17471 8.58999 7.13254 8.37052 7.13447 8.14922C7.13639 7.92792 7.18237 7.70922 7.26972 7.50588C7.35706 7.30254 7.48403 7.11863 7.64322 6.96489L12.3349 2.27156C13.4457 2.01891 14.6078 2.12289 15.6561 2.5687C16.7044 3.01451 17.5854 3.77947 18.174 4.7548C18.7625 5.73013 19.0286 6.86618 18.9343 8.00141C18.8401 9.13665 18.3904 10.2133 17.6491 11.0782L15.8924 12.8574L11.7674 8.73239V8.73322ZM2.63405 3.72322C3.49635 2.86104 4.62423 2.31487 5.83535 2.17303C7.04647 2.03118 8.27003 2.30195 9.30822 2.94156L6.46405 5.78656C5.84805 6.40133 5.49691 7.23264 5.48567 8.10286C5.47442 8.97307 5.80396 9.81318 6.40387 10.4437C7.00378 11.0742 7.82648 11.445 8.69618 11.477C9.56588 11.509 10.4136 11.1996 11.0582 10.6149L11.1782 10.5007L14.7141 14.0357L11.1782 17.5716C10.8657 17.884 10.4418 18.0595 9.99989 18.0595C9.55795 18.0595 9.1341 17.884 8.82155 17.5716L2.63322 11.3832C1.6175 10.3674 1.04687 8.98973 1.04688 7.55322C1.04687 6.11671 1.6175 4.73903 2.63322 3.72322H2.63405Z" fill="white"/>
</svg>
