<svg width="18" height="18" viewBox="0 0 18 18" fill="none" xmlns="http://www.w3.org/2000/svg">
<path fill-rule="evenodd" clip-rule="evenodd" d="M13.4439 17.4394C6.32025 17.4394 0.525391 11.6289 0.525391 4.4861C0.525391 2.35218 2.2568 0.616943 4.38416 0.616943C4.60226 0.616943 4.81785 0.635448 5.02673 0.671616C5.23057 0.70442 5.43609 0.75657 5.6349 0.825541C5.90837 0.920588 6.11305 1.15021 6.17765 1.43283L7.32689 6.44928C7.3898 6.72517 7.31011 7.01451 7.11466 7.21975C6.99973 7.33919 6.99722 7.34171 5.95703 7.8876C6.79924 9.71619 8.26306 11.1789 10.0507 11.9948C10.5951 10.951 10.5985 10.9476 10.7176 10.8332C10.9231 10.6364 11.2125 10.5598 11.4868 10.6204L16.4898 11.7719C16.7708 11.8367 16.9998 12.0419 17.0946 12.3153C17.1634 12.5138 17.2146 12.719 17.249 12.9301C17.2842 13.1379 17.3026 13.3532 17.3026 13.5702C17.3026 15.7041 15.5721 17.4394 13.4439 17.4394Z" fill="#7ACEFA"/>
</svg>
