<svg width="17" height="22" viewBox="0 0 17 22" fill="none" xmlns="http://www.w3.org/2000/svg">
<path d="M16.7013 16.0295L14.7429 13.1397V9.04367C14.8125 7.95457 14.5383 6.86997 13.9521 5.91524C13.3658 4.96052 12.4913 4.17466 11.4298 3.64853C11.4443 3.48087 11.4443 3.31246 11.4298 3.1448C11.4184 2.80704 11.3331 2.47461 11.1789 2.16653C11.0247 1.85845 10.8045 1.58075 10.531 1.3493C10.2575 1.11786 9.93604 0.937207 9.58495 0.817679C9.23385 0.698151 8.86003 0.642088 8.48485 0.652696C8.10967 0.642088 7.73585 0.698151 7.38475 0.817679C7.03365 0.937207 6.71216 1.11786 6.43866 1.3493C6.16516 1.58075 5.94501 1.85845 5.7908 2.16653C5.63658 2.47461 5.55132 2.80704 5.5399 3.1448C5.51822 3.31214 5.51822 3.48119 5.5399 3.64853C4.47836 4.17466 3.60391 4.96052 3.01763 5.91524C2.43135 6.86997 2.15718 7.95457 2.22683 9.04367V13.1397L0.268442 16.0295C0.0990389 16.28 0.00651942 16.5665 0.000332102 16.8597C-0.00585522 17.1529 0.0745113 17.4424 0.233224 17.6985C0.391937 17.9546 0.62331 18.1682 0.903714 18.3175C1.18412 18.4667 1.50351 18.5463 1.82926 18.5481H4.43554C4.50366 19.4647 4.96346 20.3218 5.71845 20.9397C6.47344 21.5576 7.46492 21.8882 8.48485 21.8621C9.50477 21.8882 10.4963 21.5576 11.2512 20.9397C12.0062 20.3218 12.466 19.4647 12.5342 18.5481H15.1404C15.4662 18.5463 15.7856 18.4667 16.066 18.3175C16.3464 18.1682 16.5778 17.9546 16.7365 17.6985C16.8952 17.4424 16.9755 17.1529 16.9694 16.8597C16.9632 16.5665 16.8707 16.28 16.7013 16.0295V16.0295ZM7.38049 3.1448C7.40667 2.90323 7.53695 2.68051 7.74339 2.52439C7.94984 2.36828 8.21602 2.2912 8.48485 2.30968C8.75368 2.2912 9.01985 2.36828 9.2263 2.52439C9.43275 2.68051 9.56302 2.90323 9.5892 3.1448C9.22144 3.12407 8.85261 3.12407 8.48485 3.1448C8.1171 3.12372 7.74824 3.12372 7.38049 3.1448V3.1448ZM8.48485 20.2051C7.95279 20.2292 7.43015 20.0721 7.02089 19.7651C6.61164 19.4581 6.34575 19.0236 6.27614 18.5481H10.6936C10.6239 19.0236 10.3581 19.4581 9.9488 19.7651C9.53955 20.0721 9.01691 20.2292 8.48485 20.2051V20.2051ZM1.82926 16.8912L3.80238 14.0146L4.06743 13.6037V9.04367C4.06389 8.05094 4.36999 7.07725 4.95091 6.23343C5.35175 5.73888 5.88774 5.34597 6.50692 5.09281C7.12609 4.83966 7.80743 4.73484 8.48485 4.78853C9.16227 4.73484 9.8436 4.83966 10.4628 5.09281C11.082 5.34597 11.6179 5.73888 12.0188 6.23343C12.5997 7.07725 12.9058 8.05094 12.9023 9.04367V13.6037L13.1673 14.0146L15.1404 16.8912H1.82926Z" fill="#202020"/>
</svg>
