<svg width="43" height="44" viewBox="0 0 43 44" fill="none" xmlns="http://www.w3.org/2000/svg">
<rect x="1.5" y="1.5" width="39.7049" height="40.5754" rx="11.5" fill="#36C936" stroke="white" stroke-width="3"/>
<path d="M27.8808 25.139L26.1701 23.3874C25.7137 22.9201 24.9163 22.9193 24.4591 23.3874L24.1738 23.6794L27.5957 27.1822L27.8808 26.8903C28.3545 26.4054 28.3529 25.6214 27.8808 25.139Z" fill="white"/>
<path d="M23.5873 24.2465C23.2274 24.532 22.7138 24.5206 22.3849 24.1831L19.0025 20.7181C18.6728 20.3806 18.6617 19.8545 18.9406 19.4869L15.5266 15.9922C14.058 17.7447 14.1154 20.3855 15.7363 22.0449L21.0889 27.5268C22.6444 29.1191 25.1923 29.3303 27.0015 27.7414L23.5873 24.2465Z" fill="white"/>
<path d="M19.7812 16.8443L18.0705 15.0927C17.6141 14.6254 16.8167 14.6246 16.3595 15.0927L16.0742 15.3847L19.4961 18.8875L19.7812 18.5956C20.2549 18.1107 20.2533 17.3268 19.7812 16.8443Z" fill="white"/>
</svg>
