<svg width="43" height="44" viewBox="0 0 43 44" fill="none" xmlns="http://www.w3.org/2000/svg">
<rect x="1.5" y="1.5" width="39.7049" height="40.5754" rx="11.5" fill="#D8D8D8" stroke="white" stroke-width="3"/>
<path d="M27.8808 25.5321L26.1701 23.7804C25.7137 23.3132 24.9163 23.3124 24.4591 23.7804L24.1738 24.0725L27.5957 27.5753L27.8808 27.2833C28.3545 26.7984 28.3529 26.0145 27.8808 25.5321Z" fill="white"/>
<path d="M23.5873 24.6396C23.2274 24.9251 22.7138 24.9137 22.3849 24.5762L19.0025 21.1112C18.6728 20.7737 18.6617 20.2476 18.9406 19.88L15.5266 16.3853C14.058 18.1378 14.1154 20.7785 15.7363 22.4379L21.0889 27.9198C22.6444 29.5122 25.1923 29.7234 27.0015 28.1344L23.5873 24.6396Z" fill="white"/>
<path d="M19.7812 17.2374L18.0705 15.4857C17.6141 15.0185 16.8167 15.0177 16.3595 15.4857L16.0742 15.7778L19.4961 19.2806L19.7812 18.9886C20.2549 18.5038 20.2533 17.7199 19.7812 17.2374Z" fill="white"/>
</svg>
