<svg width="50" height="50" viewBox="0 0 50 50" fill="none" xmlns="http://www.w3.org/2000/svg">
<rect x="1.5" y="1.5" width="47" height="47" rx="18.5" fill="#FDBA2F" stroke="#F6F6F6" stroke-width="3"/>
<path d="M35.6331 32C35.6331 32.5304 35.4239 33.0391 35.0515 33.4142C34.6792 33.7893 34.1741 34 33.6475 34H15.777C15.2504 34 14.7453 33.7893 14.373 33.4142C14.0006 33.0391 13.7914 32.5304 13.7914 32V21C13.7914 20.4696 14.0006 19.9609 14.373 19.5858C14.7453 19.2107 15.2504 19 15.777 19H19.7482L21.7338 16H27.6907L29.6763 19H33.6475C34.1741 19 34.6792 19.2107 35.0515 19.5858C35.4239 19.9609 35.6331 20.4696 35.6331 21V32Z" stroke="white" stroke-width="2" stroke-linecap="round" stroke-linejoin="round"/>
<path d="M24.7123 30C26.9055 30 28.6835 28.2091 28.6835 26C28.6835 23.7909 26.9055 22 24.7123 22C22.519 22 20.741 23.7909 20.741 26C20.741 28.2091 22.519 30 24.7123 30Z" stroke="white" stroke-width="2" stroke-linecap="round" stroke-linejoin="round"/>
</svg>
