<svg width="30" height="29" viewBox="0 0 30 29" fill="none" xmlns="http://www.w3.org/2000/svg">
<path d="M15.001 2.82129C8.59029 2.82129 3.39386 8.01772 3.39386 14.4266C3.39386 16.2793 3.82779 18.032 4.601 19.5874L3.08672 24.1293C2.63047 25.4972 3.901 26.8141 5.28404 26.4061L10.1528 24.9749C11.6733 25.6741 13.3274 26.0351 15.001 26.0329C21.4108 26.0329 26.6081 20.8365 26.6081 14.4266C26.6081 8.01772 21.4099 2.82129 15.001 2.82129ZM10.5358 12.6418C10.5358 12.405 10.6299 12.1779 10.7973 12.0105C10.9648 11.843 11.1919 11.749 11.4287 11.749H18.5715C18.8083 11.749 19.0354 11.843 19.2029 12.0105C19.3703 12.1779 19.4644 12.405 19.4644 12.6418C19.4644 12.8786 19.3703 13.1057 19.2029 13.2732C19.0354 13.4406 18.8083 13.5347 18.5715 13.5347H11.4287C11.1919 13.5347 10.9648 13.4406 10.7973 13.2732C10.6299 13.1057 10.5358 12.8786 10.5358 12.6418ZM11.4287 15.3204H16.7858C16.9054 15.3166 17.0245 15.3369 17.1361 15.38C17.2477 15.4232 17.3494 15.4883 17.4353 15.5716C17.5213 15.6548 17.5896 15.7545 17.6362 15.8646C17.6829 15.9748 17.7069 16.0932 17.7069 16.2128C17.7069 16.3324 17.6829 16.4508 17.6362 16.561C17.5896 16.6712 17.5213 16.7708 17.4353 16.8541C17.3494 16.9373 17.2477 17.0024 17.1361 17.0456C17.0245 17.0887 16.9054 17.109 16.7858 17.1052H11.4287C11.1919 17.1052 10.9648 17.0111 10.7973 16.8437C10.6299 16.6763 10.5358 16.4492 10.5358 16.2124C10.5358 15.9756 10.6299 15.7485 10.7973 15.581C10.9648 15.4136 11.1919 15.3195 11.4287 15.3195V15.3204Z" fill="#FDBA2F"/>
</svg>
