<svg width="30" height="29" viewBox="0 0 30 29" fill="none" xmlns="http://www.w3.org/2000/svg">
<path d="M5.21718 19.7455L5.28248 19.5497L5.19057 19.3648C4.45101 17.8771 4.03571 16.2005 4.03571 14.4266C4.03571 8.29391 9.00823 3.32129 15.1428 3.32129C21.2757 3.32129 26.25 8.29396 26.25 14.4266C26.25 20.5603 21.2766 25.5329 15.1428 25.5329H15.1422C13.541 25.535 11.9583 25.1896 10.5035 24.5206L10.3333 24.4423L10.1536 24.4952L5.28487 25.9264L5.2844 25.9265C4.28934 26.2201 3.37434 25.2725 3.70287 24.2875L3.70289 24.2875L5.21718 19.7455ZM12.0705 14.8204V14.8195H11.5705C11.2011 14.8195 10.8468 14.9663 10.5856 15.2275C10.3244 15.4887 10.1777 15.8429 10.1777 16.2124C10.1777 16.5818 10.3244 16.936 10.5856 17.1973C10.8468 17.4585 11.2011 17.6052 11.5705 17.6052H16.9206C17.1042 17.6099 17.2869 17.5782 17.4583 17.5119C17.6323 17.4446 17.7911 17.343 17.9251 17.2132C18.0591 17.0833 18.1657 16.9278 18.2385 16.756C18.3113 16.5841 18.3488 16.3994 18.3488 16.2128C18.3488 16.0262 18.3113 15.8415 18.2385 15.6696C18.1657 15.4978 18.0591 15.3423 17.9251 15.2125C17.7911 15.0826 17.6323 14.981 17.4583 14.9137C17.2869 14.8474 17.1042 14.8157 16.9206 14.8204H12.0705ZM10.5856 11.6569C10.3244 11.9181 10.1777 12.2724 10.1777 12.6418C10.1777 13.0112 10.3244 13.3655 10.5856 13.6267C10.8468 13.8879 11.2011 14.0347 11.5705 14.0347H18.7134C19.0828 14.0347 19.4371 13.8879 19.6983 13.6267C19.9595 13.3655 20.1062 13.0112 20.1062 12.6418C20.1062 12.2724 19.9595 11.9181 19.6983 11.6569C19.4371 11.3957 19.0828 11.249 18.7134 11.249H11.5705C11.2011 11.249 10.8468 11.3957 10.5856 11.6569Z" stroke="#979797"/>
</svg>
