<svg width="15" height="18" viewBox="0 0 15 18" fill="none" xmlns="http://www.w3.org/2000/svg">
<path d="M9.5361 9.00082L14.6263 2.71261C15.181 2.02553 15.1108 0.994922 14.4649 0.397467C13.8189 -0.192521 12.85 -0.117839 12.2954 0.569235L7.5 6.49151L2.71167 0.576703C2.15701 -0.110371 1.18108 -0.185053 0.535151 0.404934C-0.110783 0.994921 -0.180993 2.033 0.373667 2.72007L5.4639 9.00082L0.373667 15.289C-0.180993 15.9761 -0.110783 17.0067 0.535151 17.6042C0.823013 17.873 1.18108 18 1.53916 18C1.97446 18 2.40274 17.8058 2.70464 17.4324L7.49298 11.5176L12.2813 17.4324C12.5832 17.8058 13.0185 18 13.4468 18C13.8049 18 14.1629 17.873 14.4508 17.6042C15.0967 17.0142 15.167 15.9761 14.6123 15.289L9.5361 9.00082Z" fill="white"/>
</svg>
