<svg width="14" height="16" viewBox="0 0 14 16" fill="none" xmlns="http://www.w3.org/2000/svg">
<path d="M8.69856 8.00008L12.9466 3.06648C13.4095 2.52742 13.3509 1.71883 12.8118 1.25008C12.2728 0.787185 11.4642 0.845779 11.0013 1.38484L6.99934 6.03133L3.00325 1.3907C2.54036 0.851638 1.72591 0.793044 1.18684 1.25593C0.647781 1.71883 0.589187 2.53328 1.05208 3.07234L5.30012 8.00008L1.05208 12.9337C0.589187 13.4727 0.647781 14.2813 1.18684 14.7501C1.42708 14.961 1.72591 15.0606 2.02473 15.0606C2.38802 15.0606 2.74544 14.9083 2.99739 14.6153L6.99348 9.97469L10.9896 14.6153C11.2415 14.9083 11.6048 15.0606 11.9622 15.0606C12.2611 15.0606 12.5599 14.961 12.8001 14.7501C13.3392 14.2872 13.3978 13.4727 12.9349 12.9337L8.69856 8.00008Z" fill="#FDBA2F"/>
</svg>
