<svg width="34" height="34" viewBox="0 0 34 34" fill="none" xmlns="http://www.w3.org/2000/svg">
<path d="M17 0C7.62582 0 0 7.62582 0 17C0 26.3742 7.62582 34 17 34C26.3742 34 34 26.3742 34 17C34 7.62582 26.3742 0 17 0Z" fill="#36C936"/>
<path d="M25.6159 13.3967L16.4075 22.6048C16.1312 22.8811 15.7686 23.0201 15.4059 23.0201C15.0433 23.0201 14.6807 22.8811 14.4044 22.6048L9.80032 18.0007C9.24625 17.4469 9.24625 16.5515 9.80032 15.9977C10.3541 15.4436 11.2493 15.4436 11.8034 15.9977L15.4059 19.6002L23.6128 11.3936C24.1666 10.8395 25.0618 10.8395 25.6159 11.3936C26.1697 11.9474 26.1697 12.8426 25.6159 13.3967V13.3967Z" fill="#FAFAFA"/>
</svg>
