<svg width="36" height="30" viewBox="0 0 36 30" fill="none" xmlns="http://www.w3.org/2000/svg">
<path d="M0.302394 26.7943L15.6897 1.04185C16.5446 -0.347284 18.5749 -0.347284 19.3229 1.04185L34.7102 26.7943C35.5651 28.1834 34.4965 30 32.8937 30H2.11896C0.516108 30 -0.552459 28.1834 0.302394 26.7943Z" fill="#FFC107"/>
<path d="M15.7969 24.5504C15.7969 24.3367 15.7969 24.1229 15.9037 23.9092C16.0106 23.6955 16.1174 23.5887 16.2243 23.3749C16.3312 23.1612 16.5449 23.1612 16.7586 23.0544C16.9723 22.9475 17.186 22.9475 17.3997 22.9475C17.6134 22.9475 17.934 22.9475 18.1477 23.0544C18.3614 23.1612 18.5751 23.2681 18.682 23.3749C18.7889 23.4818 18.8957 23.6955 19.0026 23.9092C19.1094 24.1229 19.1094 24.3367 19.1094 24.5504C19.1094 24.7641 19.1094 24.9778 19.0026 25.1915C18.8957 25.4052 18.7889 25.5121 18.682 25.7258C18.5751 25.9395 18.3614 25.9395 18.1477 26.0464C17.934 26.1532 17.7203 26.1532 17.3997 26.1532C17.0792 26.1532 16.8654 26.1532 16.7586 26.0464C16.6517 25.9395 16.3312 25.8327 16.2243 25.7258C16.1174 25.6189 16.0106 25.4052 15.9037 25.1915C15.7969 24.9778 15.7969 24.7641 15.7969 24.5504ZM18.7889 21.2378H16.3312L15.9037 10.7659H19.1094L18.7889 21.2378Z" fill="white"/>
</svg>

