<svg width="27" height="22" viewBox="0 0 27 22" fill="none" xmlns="http://www.w3.org/2000/svg">
<path d="M17.6 4.4C17.6 5.56695 17.1364 6.68611 16.3113 7.51127C15.4861 8.33643 14.367 8.8 13.2 8.8C12.033 8.8 10.9139 8.33643 10.0887 7.51127C9.26357 6.68611 8.8 5.56695 8.8 4.4C8.8 3.23305 9.26357 2.11389 10.0887 1.28873C10.9139 0.46357 12.033 0 13.2 0C14.367 0 15.4861 0.46357 16.3113 1.28873C17.1364 2.11389 17.6 3.23305 17.6 4.4V4.4ZM24.9333 7.33333C24.9333 8.1113 24.6243 8.85741 24.0742 9.40751C23.5241 9.95762 22.778 10.2667 22 10.2667C21.222 10.2667 20.4759 9.95762 19.9258 9.40751C19.3757 8.85741 19.0667 8.1113 19.0667 7.33333C19.0667 6.55537 19.3757 5.80926 19.9258 5.25915C20.4759 4.70905 21.222 4.4 22 4.4C22.778 4.4 23.5241 4.70905 24.0742 5.25915C24.6243 5.80926 24.9333 6.55537 24.9333 7.33333V7.33333ZM19.0667 17.6C19.0667 16.0441 18.4486 14.5519 17.3484 13.4516C16.2481 12.3514 14.7559 11.7333 13.2 11.7333C11.6441 11.7333 10.1519 12.3514 9.05164 13.4516C7.95143 14.5519 7.33333 16.0441 7.33333 17.6V22H19.0667V17.6ZM7.33333 7.33333C7.33333 8.1113 7.02429 8.85741 6.47418 9.40751C5.92407 9.95762 5.17797 10.2667 4.4 10.2667C3.62203 10.2667 2.87593 9.95762 2.32582 9.40751C1.77571 8.85741 1.46667 8.1113 1.46667 7.33333C1.46667 6.55537 1.77571 5.80926 2.32582 5.25915C2.87593 4.70905 3.62203 4.4 4.4 4.4C5.17797 4.4 5.92407 4.70905 6.47418 5.25915C7.02429 5.80926 7.33333 6.55537 7.33333 7.33333V7.33333ZM22 22V17.6C22.0021 16.1088 21.6235 14.6418 20.9 13.3379C21.5502 13.1715 22.2299 13.1558 22.8871 13.292C23.5444 13.4282 24.1618 13.7127 24.6923 14.1239C25.2229 14.535 25.6525 15.0619 25.9485 15.6643C26.2444 16.2667 26.3988 16.9288 26.4 17.6V22H22ZM5.5 13.3379C4.77656 14.6418 4.39795 16.1088 4.4 17.6V22H3.89723e-07V17.6C-0.000282286 16.9283 0.153213 16.2655 0.448722 15.6623C0.744232 15.0592 1.17391 14.5316 1.70483 14.1202C2.23575 13.7088 2.85381 13.4244 3.51165 13.2888C4.1695 13.1532 4.84965 13.1699 5.5 13.3379V13.3379Z" fill="#FDBA2F"/>
</svg>

