<svg width="21" height="23" viewBox="0 0 21 23" fill="none" xmlns="http://www.w3.org/2000/svg">
<path d="M5.32859 2.86829C5.96493 1.75986 6.9545 0.896761 8.13913 0.416957C9.32376 -0.0628461 10.635 -0.131652 11.8634 0.221539C13.0917 0.574729 14.1662 1.32952 14.915 2.36527C15.6639 3.40102 16.0439 4.65792 15.9943 5.93506C15.9447 7.2122 15.4683 8.43584 14.6414 9.41039C13.8145 10.3849 12.6847 11.0541 11.4327 11.311C10.1807 11.5679 8.87869 11.3976 7.73484 10.8273C6.591 10.2571 5.67134 9.31988 5.12288 8.16543C4.75644 8.43349 4.31403 8.57762 3.86002 8.57686H3.14573V8.94115C3.14573 9.21258 3.24859 9.45972 3.41716 9.64686C3.56121 9.48402 3.75146 9.36892 3.96255 9.3169C4.17365 9.26487 4.39559 9.27839 4.59881 9.35564C4.80204 9.4329 4.9769 9.57023 5.10013 9.74935C5.22336 9.92847 5.2891 10.1409 5.28859 10.3583C5.28849 10.5076 5.25717 10.6552 5.19666 10.7917C5.13615 10.9282 5.04778 11.0506 4.93721 11.1509C4.82665 11.2513 4.69633 11.3274 4.55462 11.3744C4.4129 11.4215 4.26293 11.4383 4.11431 11.424C3.4709 11.4014 2.86139 11.1299 2.41421 10.6668C1.96704 10.2036 1.71714 9.58495 1.71716 8.94115V3.58115C1.71716 3.39171 1.79242 3.21003 1.92637 3.07607C2.06033 2.94212 2.24201 2.86686 2.43145 2.86686H5.28859L5.32859 2.86829ZM3.14573 7.14829H3.86002C4.04946 7.14829 4.23114 7.07304 4.3651 6.93908C4.49905 6.80513 4.57431 6.62345 4.57431 6.43401V5.90543C4.57011 5.77785 4.57011 5.65016 4.57431 5.52258V4.29543H3.14573V7.14829Z" fill="#FDBA2F"/>
<path d="M0.285767 15.7136C0.285767 14.1236 1.57577 12.8564 3.15577 12.8564H17.4286C18.1864 12.8564 18.9131 13.1575 19.4489 13.6933C19.9847 14.2291 20.2858 14.9558 20.2858 15.7136C20.2858 18.1293 19.0958 19.9507 17.2358 21.1379C15.4043 22.305 12.9358 22.8564 10.2858 22.8564C7.63577 22.8564 5.1672 22.305 3.33577 21.1379C1.47577 19.9522 0.285767 18.1279 0.285767 15.7136Z" fill="#FDBA2F"/>
</svg>
