<svg width="21" height="22" viewBox="0 0 21 22" fill="none" xmlns="http://www.w3.org/2000/svg">
<path d="M11.8592 0.554239C11.4658 0.200859 10.9558 0.00537109 10.427 0.00537109C9.89827 0.00537109 9.38819 0.200859 8.99488 0.554239L1.13773 7.61424C0.914338 7.81513 0.735683 8.06076 0.613366 8.33517C0.491049 8.60959 0.427803 8.90666 0.427734 9.2071V19.2857C0.427734 19.854 0.653499 20.399 1.05536 20.8009C1.45723 21.2028 2.00227 21.4285 2.57059 21.4285H5.42773C5.99606 21.4285 6.5411 21.2028 6.94296 20.8009C7.34483 20.399 7.57059 19.854 7.57059 19.2857V13.5714C7.57059 13.3819 7.64585 13.2003 7.7798 13.0663C7.91375 12.9324 8.09544 12.8571 8.28488 12.8571H12.5706C12.76 12.8571 12.9417 12.9324 13.0757 13.0663C13.2096 13.2003 13.2849 13.3819 13.2849 13.5714V19.2857C13.2849 19.854 13.5106 20.399 13.9125 20.8009C14.3144 21.2028 14.8594 21.4285 15.4277 21.4285H18.2849C18.8532 21.4285 19.3982 21.2028 19.8001 20.8009C20.202 20.399 20.4277 19.854 20.4277 19.2857V9.2071C20.4277 8.90666 20.3644 8.60959 20.2421 8.33517C20.1198 8.06076 19.9411 7.81513 19.7177 7.61424L11.8606 0.554239H11.8592Z" fill="#FDBA2F"/>
</svg>
