<svg width="29" height="29" viewBox="0 0 29 29" fill="none" xmlns="http://www.w3.org/2000/svg">
<path d="M15.526 3.92617L15.6685 4.05424H15.6699L23.3844 10.986C23.5557 11.14 23.6926 11.3284 23.7864 11.5387C23.8802 11.7491 23.9286 11.9768 23.9287 12.2071C23.9287 12.2071 23.9287 12.2072 23.9287 12.2072V22.2857C23.9287 22.7214 23.7556 23.1392 23.4475 23.4473C23.1394 23.7554 22.7216 23.9285 22.2859 23.9285H19.4287C18.993 23.9285 18.5751 23.7554 18.267 23.4473C17.9589 23.1392 17.7859 22.7214 17.7859 22.2857V16.5714C17.7859 16.2493 17.6579 15.9405 17.4302 15.7128C17.2025 15.485 16.8936 15.3571 16.5716 15.3571H12.2859C11.9638 15.3571 11.6549 15.485 11.4272 15.7128C11.1995 15.9405 11.0716 16.2493 11.0716 16.5714V22.2857C11.0716 22.7214 10.8985 23.1392 10.5904 23.4473C10.2823 23.7554 9.86442 23.9285 9.42871 23.9285H6.57157C6.13586 23.9285 5.71799 23.7554 5.40989 23.4473C5.1018 23.1392 4.92871 22.7214 4.92871 22.2857V12.2072C4.92871 12.2072 4.92871 12.2071 4.92871 12.2071C4.92878 11.9768 4.97727 11.7491 5.07103 11.5387C5.16481 11.3284 5.30177 11.14 5.47304 10.986L13.33 3.92617C13.33 3.92616 13.33 3.92616 13.33 3.92615C13.6316 3.65524 14.0226 3.50537 14.428 3.50537C14.8334 3.50537 15.2244 3.65524 15.526 3.92617Z" stroke="#979797"/>
</svg>
