<svg width="23" height="22" viewBox="0 0 23 22" fill="none" xmlns="http://www.w3.org/2000/svg">
<path d="M19.9795 0H2.8362C1.26677 0 0 1.33995 0 3.00004V15.0002C0 16.6602 1.26677 18.0003 2.8362 18.0003H3.7816V21.0003C3.7816 21.7228 4.48883 22.246 5.1808 21.8803C5.1997 21.8603 5.23758 21.8603 5.25649 21.8402C10.4572 18.1512 9.29165 18.9737 10.4562 18.1602C10.6074 18.0602 10.7776 18.0003 10.9667 18.0003H19.9795C21.5489 18.0003 22.8157 16.6602 22.8157 15.0002V3.00004C22.8157 1.33995 21.5489 0 19.9795 0ZM12.4163 12.0002H4.727C3.48078 12.0002 3.47567 10.0001 4.727 10.0001H12.4163C13.6625 10.0001 13.6676 12.0002 12.4163 12.0002ZM18.0887 8.00012H4.727C3.48078 8.00012 3.47567 6.00009 4.727 6.00009H18.0887C19.3349 6.00009 19.34 8.00012 18.0887 8.00012Z" fill="#FDBA2F"/>
</svg>
