<svg width="26" height="23" viewBox="0 0 26 23" fill="none" xmlns="http://www.w3.org/2000/svg">
<path d="M15.6685 9.6191C15.4453 9.39592 15.1425 9.27054 14.8269 9.27054C14.5112 9.27054 14.2084 9.39592 13.9852 9.6191L13.1435 10.4596C12.9239 10.687 12.6612 10.8684 12.3707 10.9931C12.0802 11.1179 11.7678 11.1836 11.4516 11.1864C11.1355 11.1891 10.822 11.1289 10.5294 11.0091C10.2367 10.8894 9.97091 10.7126 9.74735 10.4891C9.5238 10.2655 9.347 9.99969 9.22729 9.70708C9.10757 9.41447 9.04733 9.10095 9.05008 8.78481C9.05282 8.46867 9.1185 8.15624 9.24329 7.86575C9.36807 7.57527 9.54946 7.31254 9.77686 7.09291L16.4792 0.388146C18.0661 0.0272246 19.7263 0.175763 21.2238 0.812639C22.7214 1.44952 23.98 2.54231 24.8208 3.93564C25.6615 5.32896 26.0416 6.95189 25.907 8.57366C25.7724 10.1954 25.1299 11.7335 24.0709 12.9691L21.5614 15.5108L15.6685 9.61791V9.6191ZM2.62091 2.46196C3.85277 1.23026 5.46403 0.450025 7.1942 0.247391C8.92437 0.0447568 10.6723 0.431568 12.1554 1.34529L8.09234 5.40957C7.21234 6.28782 6.71071 7.47541 6.69465 8.71857C6.67858 9.96174 7.14935 11.1619 8.00636 12.0626C8.86337 12.9633 10.0387 13.4931 11.2811 13.5388C12.5235 13.5845 13.7346 13.1425 14.6554 12.3072L14.8269 12.1441L19.8781 17.1941L14.8269 22.2453C14.3804 22.6916 13.7749 22.9424 13.1435 22.9424C12.5122 22.9424 11.9067 22.6916 11.4602 22.2453L2.61972 13.4048C1.16869 11.9537 0.353516 9.98554 0.353516 7.93338C0.353516 5.88123 1.16869 3.91311 2.61972 2.46196H2.62091Z" fill="#FDBA2F"/>
</svg>
