<svg width="138" height="140" viewBox="0 0 138 140" fill="none" xmlns="http://www.w3.org/2000/svg">
<g clip-path="url(#clip0_599_6646)">
<path d="M35.5115 33.801C30.8946 34.6006 26.9011 38.2578 25.7078 42.7792C24.5145 47.3007 26.1848 52.4461 29.8083 55.4109C32.6505 57.7364 37.0742 58.5834 39.969 56.3235C42.7054 54.1872 43.1153 50.246 42.9621 46.7825C42.8451 44.1401 42.5048 41.4225 41.1911 39.1251C39.8775 36.8277 37.389 35.0329 34.7452 35.2276" fill="#FDBA2F"/>
<path d="M1.08338 6.64684C81.23 -3.1891 65.8254 -6.48115 63.1472 68.5824C60.4106 120.663 80.6336 110.64 23.1702 110.259C16.5403 109.394 8.70733 110.544 2.68717 108.216C1.60343 75.1652 0.998314 42.3664 0 9.22098C0.53937 40.1437 -0.750781 76.5304 1.0021 109.562C7.29054 113.387 16.295 111.41 23.559 112.693C86.6426 115.705 61.9797 118.081 65.8333 64.5438C70.0275 -12.2021 75.8482 -3.70754 1.08338 6.64684Z" fill="black"/>
<path d="M19.6442 38.0481C50.1295 20.0712 31.9172 90.7722 14.4428 56.1813C12.0852 49.4754 14.8193 41.8122 20.6948 37.7071C11.4564 42.6407 9.32986 56.4793 16.7868 64.0297C28.292 76.8668 40.7758 56.7478 38.7186 45.3108C38.2937 36.053 25.3879 29.149 19.6442 38.0481Z" fill="black"/>
<path d="M34.2402 58.6506C36.7579 62.4736 39.4984 66.1327 42.7918 69.2486C46.0919 72.1669 49.6736 74.3283 53.282 76.6507C48.103 70.1969 40.1417 62.4368 34.2402 58.6506Z" fill="black"/>
<path d="M53.718 11.8831C41.0454 12.1747 28.5133 14.0172 16.2012 16.4502C27.8729 17.3147 43.3773 15.6453 53.718 11.8831Z" fill="black"/>
<path d="M55.0054 28.04C39.5482 28.3481 24.2563 29.3131 8.875 30.0482C23.6151 32.5146 40.711 32.0999 55.0054 28.04Z" fill="black"/>
<path d="M54.0121 86.1302C41.1609 85.346 28.1694 87.3431 16 91.0342C28.0712 90.6173 44.2248 88.7052 54.0121 86.1302Z" fill="black"/>
<path d="M54.0121 99.1009C41.1609 98.3168 28.1694 100.314 16 104.005C28.0712 103.588 44.2248 101.676 54.0121 99.1009Z" fill="black"/>
</g>
<g clip-path="url(#clip1_599_6646)">
<path d="M95.214 53.1565C90.657 52.1424 85.5871 54.0037 82.7677 57.7258C79.9483 61.448 79.5292 66.833 81.7389 70.9458C83.4722 74.1718 87.2247 76.6329 90.751 75.6448C94.0844 74.7108 95.9615 71.2272 97.138 67.971C98.0356 65.4866 98.7561 62.8482 98.4201 60.2282C98.0841 57.6082 96.4747 55.0065 93.9654 54.1829" fill="#FDBA2F"/>
<path d="M73.8325 15.0164C151.4 36.3528 138.463 27.4664 107.437 95.7614C85.1018 142.812 107.543 141.233 54.7567 119.072C48.9788 115.757 47.4706 115.462 42.8112 111.027C39.0476 111.027 39.9884 111.027 38.5771 111.027C37.1658 111.027 39.7293 111.568 37.6362 111.027C41.8703 114.32 45.9754 117.613 54.1889 121.467C111.151 148.19 87.5294 141.024 111.448 93.0517C144.51 23.7786 146.64 33.8315 73.8325 15.0164Z" fill="black"/>
<path d="M92.0949 54.6639C124.293 50.0269 84.0227 103.848 81.316 68.2823C81.666 61.7478 86.6765 56.1802 93.1068 54.7413C83.5296 55.7088 76.8688 66.7468 80.5535 75.7847C85.8218 90.7406 103.483 77.9799 105.748 67.5226C108.634 59.4918 100.095 49.0973 92.0949 54.6639Z" fill="black"/>
<path d="M92.084 77.1541C90.3105 81.3638 88.7965 85.6668 88.0398 90.1251C87.4508 94.479 87.6459 98.6448 87.7222 102.922C90.2008 95.047 92.2188 84.143 92.084 77.1541Z" fill="black"/>
<path d="M114.476 36.8203C102.692 32.2799 90.4471 29.2248 78.1804 26.7984C88.6026 32.0265 103.519 36.3695 114.476 36.8203Z" fill="black"/>
<path d="M118.17 52.3214C103.814 46.7393 89.3615 41.8265 74.9137 36.6675C87.5528 44.5393 103.458 50.6449 118.17 52.3214Z" fill="black"/>
<path d="M92.3462 108.498C80.807 102.896 66.8035 99.2652 64.9218 101.147C64.9218 104.911 82.3512 107.161 92.3462 108.498Z" fill="black"/>
<path d="M87.4118 120.475C75.8725 114.873 63.4225 112.707 50.8085 111.497C62.0862 115.693 77.4167 119.138 87.4118 120.475Z" fill="black"/>
</g>
<defs>
<clipPath id="clip0_599_6646">
<rect width="68" height="114" fill="white"/>
</clipPath>
<clipPath id="clip1_599_6646">
<rect width="67.7453" height="113.85" fill="white" transform="translate(75.3633 8.46777) rotate(22.3934)"/>
</clipPath>
</defs>
</svg>
