<svg width="15" height="15" viewBox="0 0 15 15" fill="none" xmlns="http://www.w3.org/2000/svg">
<path d="M13.8808 10.5318L12.1701 8.78018C11.7137 8.31293 10.9163 8.31213 10.4591 8.78018L10.1738 9.07221L13.5957 12.575L13.8808 12.2831C14.3545 11.7982 14.3529 11.0143 13.8808 10.5318Z" fill="white"/>
<path d="M9.58734 9.63933C9.22737 9.92481 8.71384 9.91342 8.38492 9.57595L5.00251 6.11093C4.67284 5.77344 4.66174 5.24735 4.9406 4.87975L1.52663 1.38501C0.0579545 3.13755 0.115378 5.77829 1.73632 7.43767L7.08892 12.9196C8.6444 14.5119 11.1923 14.7231 13.0015 13.1342L9.58734 9.63933Z" fill="white"/>
<path d="M5.78024 2.23714L4.06956 0.485505C3.61313 0.0182516 2.81569 0.0174535 2.3585 0.485505L2.07324 0.777532L5.49509 4.28034L5.78024 3.98839C6.25388 3.50353 6.25232 2.71961 5.78024 2.23714Z" fill="white"/>
</svg>
