<svg width="30" height="29" viewBox="0 0 30 29" fill="none" xmlns="http://www.w3.org/2000/svg">
<path d="M24.8645 19.6031C23.5892 18.2214 22.0416 17.1187 20.3192 16.3645C18.5968 15.6103 16.7368 15.2209 14.8565 15.2209C12.9762 15.2209 11.1163 15.6103 9.39387 16.3645C7.67145 17.1187 6.12387 18.2214 4.84859 19.6031C4.65169 19.8208 4.54156 20.1033 4.53906 20.3968V25.1587C4.54324 25.4717 4.6705 25.7704 4.89331 25.9902C5.11611 26.2101 5.41654 26.3333 5.72954 26.3333H23.9835C24.2992 26.3333 24.602 26.2079 24.8253 25.9846C25.0486 25.7613 25.174 25.4585 25.174 25.1428V20.3809C25.1677 20.0929 25.0578 19.8168 24.8645 19.6031V19.6031Z" fill="#FDBA2F"/>
<path d="M14.8563 13.6348C17.9246 13.6348 20.4119 11.1475 20.4119 8.07924C20.4119 5.01099 17.9246 2.52368 14.8563 2.52368C11.7881 2.52368 9.30078 5.01099 9.30078 8.07924C9.30078 11.1475 11.7881 13.6348 14.8563 13.6348Z" fill="#FDBA2F"/>
</svg>
