<svg width="30" height="29" viewBox="0 0 30 29" fill="none" xmlns="http://www.w3.org/2000/svg">
<path d="M5.72954 25.8333H5.72949C5.54795 25.8333 5.37371 25.7618 5.24448 25.6343C5.11594 25.5075 5.04222 25.3354 5.03906 25.1549V20.3992C5.04095 20.2295 5.10454 20.0663 5.21795 19.9401C6.44604 18.6101 7.93611 17.5486 9.59442 16.8225C11.2536 16.096 13.0453 15.7209 14.8565 15.7209C16.6678 15.7209 18.4594 16.096 20.1186 16.8225C21.7769 17.5487 23.267 18.6101 24.4951 19.9402C24.6059 20.0633 24.6692 20.2217 24.674 20.3872V25.1428C24.674 25.3259 24.6012 25.5016 24.4717 25.6311C24.3423 25.7605 24.1666 25.8333 23.9835 25.8333H5.72954Z" stroke="#979797"/>
<path d="M19.9119 8.07924C19.9119 10.8713 17.6484 13.1348 14.8563 13.1348C12.0642 13.1348 9.80078 10.8713 9.80078 8.07924C9.80078 5.28713 12.0642 3.02368 14.8563 3.02368C17.6484 3.02368 19.9119 5.28713 19.9119 8.07924Z" stroke="#979797"/>
</svg>
