<svg width="30" height="29" viewBox="0 0 30 29" fill="none" xmlns="http://www.w3.org/2000/svg">
<path d="M5.73021 25.833H5.73017C5.54863 25.8331 5.37438 25.7616 5.24515 25.6341C5.11661 25.5072 5.04289 25.3351 5.03973 25.1547V20.3989C5.04162 20.2293 5.10521 20.0661 5.21862 19.9399C6.44671 18.6099 7.93678 17.5484 9.59509 16.8223C11.2543 16.0958 13.0459 15.7207 14.8572 15.7207C16.6685 15.7207 18.4601 16.0958 20.1193 16.8223C21.7776 17.5484 23.2678 18.6099 24.4959 19.94C24.6066 20.0631 24.6699 20.2215 24.6747 20.3869V25.1426C24.6747 25.3257 24.6019 25.5013 24.4724 25.6308C24.3429 25.7603 24.1673 25.833 23.9842 25.833H5.73021Z" stroke="#979797"/>
<path d="M19.9127 8.07899C19.9127 10.8711 17.6493 13.1345 14.8572 13.1345C12.0651 13.1345 9.80164 10.8711 9.80164 8.07899C9.80164 5.28689 12.0651 3.02344 14.8572 3.02344C17.6493 3.02344 19.9127 5.28689 19.9127 8.07899Z" stroke="#979797"/>
</svg>
