<svg width="22" height="22" viewBox="0 0 22 22" fill="none" xmlns="http://www.w3.org/2000/svg">
<path fill-rule="evenodd" clip-rule="evenodd" d="M11.0664 15.9625C11.2392 15.9625 11.412 16.0035 11.5696 16.0846L15.6656 18.2127L14.8864 13.722C14.8244 13.3698 14.9429 13.0112 15.2015 12.7617L18.5009 9.58997L13.9333 8.92884C13.5801 8.87807 13.2747 8.65878 13.116 8.34118L11.0664 4.24262L9.01674 8.34118C8.85807 8.65878 8.55269 8.87807 8.19949 8.92884L3.63182 9.58997L6.93124 12.7617C7.18989 13.0112 7.30835 13.3698 7.2464 13.722L6.46719 18.2127L10.5632 16.0846C10.7208 16.0035 10.8936 15.9625 11.0664 15.9625ZM17.111 21.2612C16.9382 21.2612 16.7654 21.2213 16.6078 21.1392L11.0664 18.2613L5.52496 21.1392C5.15764 21.3293 4.71424 21.2958 4.38277 21.0538C4.04805 20.8118 3.88177 20.4024 3.95133 19.9973L5.00766 13.9175L0.53019 9.61265C0.231329 9.32638 0.124826 8.89643 0.251978 8.50429C0.378043 8.11216 0.719287 7.82696 1.129 7.76755L7.32465 6.87308L10.0926 1.33561C10.46 0.601022 11.6728 0.601022 12.0401 1.33561L14.8081 6.87308L21.0038 7.76755C21.4135 7.82696 21.7547 8.11216 21.8808 8.50429C22.0079 8.89643 21.9014 9.32638 21.6026 9.61265L17.1251 13.9175L18.1814 19.9973C18.251 20.4024 18.0847 20.8118 17.75 21.0538C17.562 21.1921 17.337 21.2612 17.111 21.2612Z" fill="#F7C480"/>
</svg>
