<svg width="24" height="19" viewBox="0 0 24 19" fill="none" xmlns="http://www.w3.org/2000/svg">
<path d="M7.42445 15.1966L2.41995 10.1866C2.28908 10.054 2.13323 9.94872 1.96142 9.87687C1.7896 9.80501 1.60525 9.76801 1.41905 9.76801C1.23284 9.76801 1.04849 9.80501 0.87668 9.87687C0.704868 9.94872 0.549012 10.054 0.418147 10.1866C0.285685 10.3176 0.180517 10.4736 0.108739 10.6456C0.0369605 10.8176 0 11.0022 0 11.1886C0 11.375 0.0369605 11.5596 0.108739 11.7316C0.180517 11.9036 0.285685 12.0596 0.418147 12.1906L6.40925 18.1882C6.9669 18.7465 7.86771 18.7465 8.42535 18.1882L23.5819 3.02952C23.7143 2.89851 23.8195 2.74249 23.8913 2.57049C23.963 2.39849 24 2.21394 24 2.02753C24 1.84112 23.963 1.65657 23.8913 1.48457C23.8195 1.31257 23.7143 1.15654 23.5819 1.02554C23.451 0.892931 23.2951 0.787647 23.1233 0.715791C22.9515 0.643934 22.7672 0.606934 22.581 0.606934C22.3947 0.606934 22.2104 0.643934 22.0386 0.715791C21.8668 0.787647 21.7109 0.892931 21.5801 1.02554L7.42445 15.1966Z" fill="white"/>
</svg>
