<svg width="26" height="25" viewBox="0 0 26 25" fill="none" xmlns="http://www.w3.org/2000/svg">
<g clip-path="url(#clip0_1035_6211)">
<rect width="26" height="25" fill="#EBF5F6"/>
<path d="M0 7.5V3.72529e-08H1.73333V7.5C1.73333 8.16304 2.00726 8.79893 2.49486 9.26777C2.98245 9.73661 3.64377 10 4.33333 10C5.0229 10 5.68422 9.73661 6.17181 9.26777C6.65941 8.79893 6.93333 8.16304 6.93333 7.5V2.5C6.93333 2.27899 6.84202 2.06702 6.67949 1.91074C6.51696 1.75446 6.29652 1.66667 6.06667 1.66667C5.83681 1.66667 5.61637 1.75446 5.45384 1.91074C5.29131 2.06702 5.2 2.27899 5.2 2.5V8.33333H3.46667V2.5C3.46667 2.1717 3.53392 1.84661 3.66458 1.54329C3.79524 1.23998 3.98676 0.96438 4.22819 0.732233C4.46962 0.500087 4.75624 0.315938 5.07169 0.190301C5.38714 0.0646644 5.72523 0 6.06667 0C6.4081 0 6.7462 0.0646644 7.06164 0.190301C7.37709 0.315938 7.66371 0.500087 7.90514 0.732233C8.14658 0.96438 8.33809 1.23998 8.46875 1.54329C8.59942 1.84661 8.66667 2.1717 8.66667 2.5V7.5C8.66667 8.60507 8.21012 9.66488 7.39746 10.4463C6.5848 11.2277 5.4826 11.6667 4.33333 11.6667C3.18406 11.6667 2.08186 11.2277 1.2692 10.4463C0.456546 9.66488 0 8.60507 0 7.5H0Z" fill="#6EBFC3"/>
<path fill-rule="evenodd" clip-rule="evenodd" d="M21.6658 0H10.3991V7.5C10.3991 9.0471 9.75992 10.5308 8.6222 11.6248C7.48448 12.7188 5.9414 13.3333 4.33242 13.3333H1.73242V22.5C1.73242 23.163 2.00635 23.7989 2.49394 24.2678C2.98154 24.7366 3.64286 25 4.33242 25H21.6658C22.3553 25 23.0166 24.7366 23.5042 24.2678C23.9918 23.7989 24.2658 23.163 24.2658 22.5V2.5C24.2658 1.83696 23.9918 1.20107 23.5042 0.732233C23.0166 0.263392 22.3553 0 21.6658 0V0ZM19.0658 6.66667H12.1324V8.33333H19.0658V6.66667ZM19.0658 11.6667H12.1324V13.3333H19.0658V11.6667ZM6.93242 16.6667H19.0658V18.3333H6.93242V16.6667Z" fill="#6EBFC3"/>
</g>
<defs>
<clipPath id="clip0_1035_6211">
<rect width="26" height="25" fill="white"/>
</clipPath>
</defs>
</svg>
