<svg width="43" height="44" viewBox="0 0 43 44" fill="none" xmlns="http://www.w3.org/2000/svg">
<rect x="1.5" y="1.5" width="39.7049" height="40.5754" rx="11.5" fill="#2CA6E5" stroke="white" stroke-width="3"/>
<path fill-rule="evenodd" clip-rule="evenodd" d="M30.1602 18.2936C29.6281 18.0799 29.011 18.1726 28.5869 18.534L26.75 22.1074V18.9646C26.75 17.665 25.6068 16.6074 24.2 16.6074H16.55C15.1441 16.6074 14 17.665 14 18.9646V25.2503C14 26.5506 15.1441 27.6074 16.55 27.6074H24.2C25.6068 27.6074 26.75 26.5506 26.75 25.2503V22.1074L28.5869 25.6809C28.8597 25.9142 29.2125 26.036 29.572 26.036C29.7701 26.036 29.9698 25.9991 30.1602 25.9221C30.6778 25.7131 31 25.266 31 24.7561V19.4596C31 18.9496 30.6778 18.5026 30.1602 18.2936Z" fill="white"/>
</svg>
